<?xml version="1.0" standalone="no"?>
<!DOCTYPE svg PUBLIC "-//W3C//DTD SVG 20010904//EN"
 "http://www.w3.org/TR/2001/REC-SVG-20010904/DTD/svg10.dtd">
<svg version="1.0" xmlns="http://www.w3.org/2000/svg"
 width="240.000000pt" height="240.000000pt" viewBox="0 0 240.000000 240.000000"
 preserveAspectRatio="xMidYMid meet">
<metadata>
Created by potrace 1.14, written by Peter Selinger 2001-2017
</metadata>
<g transform="translate(0.000000,240.000000) scale(0.100000,-0.100000)"
fill="#000000" stroke="none">
<path d="M592 2376 c-16 -36 13 -71 60 -71 20 0 34 3 32 7 -7 11 7 38 17 32 5
-3 1 9 -9 25 -14 25 -23 31 -53 31 -28 0 -38 -5 -47 -24z"/>
<path d="M1624 2387 c-19 -22 -24 -49 -13 -63 9 -11 6 -22 -15 -52 -49 -69
-55 -74 -89 -77 -27 -3 -39 2 -56 21 -23 27 -20 74 4 74 8 0 16 4 19 9 4 5 -2
8 -11 6 -10 -1 -25 3 -33 10 -32 28 -78 22 -86 -10 -3 -14 -14 -30 -23 -35
-15 -9 -14 -9 2 -10 30 0 19 -24 -36 -78 -48 -48 -76 -64 -78 -44 0 4 -2 21
-4 38 -5 32 27 80 45 69 5 -3 11 -2 14 3 4 7 -17 10 -74 11 -8 0 -28 -1 -45
-3 -46 -4 -104 14 -110 35 -11 34 -44 44 -81 24 -28 -15 -31 -21 -24 -41 8
-19 5 -26 -13 -39 -12 -8 -17 -15 -11 -15 5 0 15 5 21 11 9 9 18 8 35 -3 21
-14 24 -25 26 -90 3 -70 1 -76 -21 -91 -23 -15 -26 -14 -73 29 -45 42 -50 53
-45 103 1 5 10 13 21 16 11 3 20 11 20 16 0 5 -11 2 -25 -7 -13 -8 -29 -12
-36 -8 -7 4 -25 7 -40 6 -22 0 -33 6 -44 26 -8 15 -14 22 -15 17 0 -6 7 -20
15 -32 11 -16 13 -28 6 -47 -8 -19 -6 -30 9 -48 16 -21 16 -27 4 -48 -7 -14
-13 -29 -13 -35 0 -5 9 6 19 26 29 56 63 59 114 12 22 -21 42 -39 45 -40 9 -5
-11 -70 -22 -70 -6 -1 -30 -4 -52 -7 -118 -19 -126 -16 -106 37 6 15 7 27 2
27 -5 0 -12 -13 -16 -29 -9 -43 -30 -45 -89 -5 -68 45 -66 66 10 100 30 13 54
26 54 29 0 2 -26 -7 -57 -21 -56 -24 -59 -24 -73 -7 -8 10 -26 18 -40 18 -14
0 -25 5 -25 12 0 6 -3 14 -7 18 -8 9 -5 -16 5 -31 10 -18 -19 -37 -45 -29 -22
6 -22 5 -3 -6 27 -16 34 -29 30 -51 -2 -10 0 -16 4 -13 17 10 32 -22 22 -48
-5 -14 -8 -27 -5 -30 2 -2 0 -16 -5 -31 -7 -17 -7 -26 -1 -26 6 0 11 8 11 18
6 73 16 102 42 111 22 9 65 -8 95 -36 7 -7 18 -13 23 -13 23 0 6 -42 -28 -67
-21 -15 -40 -31 -43 -34 -3 -3 -19 -13 -35 -22 -25 -12 -34 -13 -48 -2 -9 7
-17 18 -17 24 0 8 -5 7 -16 -3 -8 -9 -24 -16 -34 -16 -10 0 -28 -11 -39 -25
-19 -25 -21 -25 -55 -11 -37 15 -39 16 -55 16 -5 0 -11 9 -14 19 -3 14 7 27
37 49 54 39 107 87 81 73 -11 -5 -35 -23 -54 -40 -77 -66 -107 -65 -91 4 12
50 22 141 16 134 -3 -3 -11 -40 -17 -83 -10 -65 -16 -82 -42 -106 -34 -32 -33
-66 3 -88 18 -11 26 -10 52 6 29 18 34 19 74 5 34 -12 44 -20 49 -44 4 -16 13
-36 21 -44 13 -13 12 -19 -6 -56 -12 -22 -17 -38 -12 -35 5 3 15 19 22 36 7
16 18 30 25 30 25 0 45 -12 38 -24 -3 -6 6 2 21 17 30 32 26 33 100 -33 65
-59 68 -62 62 -84 -4 -18 -1 -22 18 -21 14 0 27 3 31 7 4 4 17 3 29 -2 11 -4
34 -13 49 -19 24 -9 26 -14 17 -31 -6 -11 -14 -19 -18 -18 -4 1 -27 -2 -51 -6
-24 -5 -58 -10 -75 -12 -17 -3 -49 -7 -71 -11 -36 -5 -38 -4 -26 11 7 9 20 16
28 16 8 0 12 4 9 8 -3 5 6 15 19 22 14 7 25 18 25 23 0 5 -22 -7 -49 -27 -27
-20 -53 -36 -59 -36 -26 0 -39 47 -41 153 -1 15 -5 27 -10 27 -9 0 -7 -57 5
-129 4 -23 0 -39 -12 -52 -21 -23 -60 -25 -68 -2 -5 12 -10 13 -18 5 -15 -15
-38 -4 -38 18 0 11 -5 22 -10 25 -7 4 -1 23 15 51 14 24 21 44 15 44 -5 0 -10
-7 -10 -15 0 -8 -3 -15 -8 -15 -4 0 -12 -10 -17 -22 -14 -31 -33 -34 -44 -6
l-10 23 0 -26 c-1 -15 -8 -29 -16 -33 -20 -7 -19 -50 1 -70 20 -20 60 -21 72
0 13 23 114 -3 118 -31 2 -11 8 -21 13 -23 6 -2 11 -11 12 -20 0 -11 2 -12 6
-4 2 6 9 9 14 6 6 -3 16 0 24 6 12 10 21 6 47 -20 18 -17 47 -41 63 -52 17
-11 4 4 -28 35 -67 63 -71 91 -15 94 18 1 60 8 94 17 109 27 109 27 133 -5 12
-16 19 -35 15 -41 -5 -7 -3 -8 7 -2 8 5 31 10 52 11 34 2 40 -1 72 -45 33 -45
37 -72 14 -96 -4 -5 -32 -10 -61 -11 -29 -2 -61 -6 -71 -10 -12 -5 -23 0 -37
16 -21 26 -24 40 -12 54 5 6 14 24 20 40 11 28 11 28 -3 11 -8 -11 -15 -23
-15 -28 0 -16 -33 -46 -46 -41 -7 3 -29 0 -48 -7 -36 -12 -56 -47 -49 -85 2
-11 4 -28 5 -37 1 -9 5 -15 9 -12 12 7 31 -24 23 -38 -5 -10 -4 -11 7 0 7 6
25 12 39 12 14 0 30 4 36 10 6 6 22 -1 44 -22 26 -23 35 -40 35 -64 1 -29 -6
-37 -52 -66 -29 -18 -75 -47 -103 -65 -40 -25 -52 -29 -56 -18 -3 8 -2 19 2
26 4 7 2 10 -7 7 -8 -3 -13 -11 -11 -17 1 -6 -5 -11 -13 -11 -8 0 -15 6 -15
14 0 8 -4 17 -9 20 -5 4 -7 -2 -4 -12 2 -10 -3 -24 -11 -31 -9 -8 -16 -19 -16
-26 0 -8 -20 -12 -67 -11 -85 1 -85 6 -10 108 45 61 61 75 77 71 16 -4 21 1
26 24 3 17 18 37 35 48 16 11 29 24 29 29 0 8 -20 -5 -48 -31 -10 -9 -40 -9
-42 1 -1 0 -3 19 -6 41 -8 65 -14 85 -25 85 -6 0 -8 -4 -5 -8 3 -5 7 -22 11
-38 15 -80 16 -94 5 -94 -6 0 -10 -10 -8 -23 2 -16 -16 -46 -61 -100 -34 -43
-68 -77 -74 -76 -18 3 -50 -13 -63 -30 -14 -18 -9 -52 8 -63 7 -4 19 -11 25
-16 7 -4 19 -44 27 -87 25 -133 25 -144 10 -153 -36 -20 -14 -92 28 -92 10 0
18 -6 18 -12 0 -7 10 6 22 30 26 51 57 63 86 34 11 -11 17 -24 14 -28 -4 -5 1
-2 10 5 9 7 21 10 27 7 5 -3 11 -1 13 5 2 6 12 3 24 -8 12 -10 36 -31 55 -48
21 -19 35 -40 36 -57 4 -46 6 -58 11 -53 3 2 12 0 21 -4 10 -6 22 -5 32 2 38
29 44 81 10 92 -15 4 -17 15 -14 67 3 39 12 72 23 88 12 16 15 31 10 40 -10
15 -6 45 15 123 2 4 3 14 4 22 0 8 10 15 20 15 26 0 52 38 45 64 -3 16 11 38
57 86 33 36 68 64 76 62 8 -2 21 2 30 9 8 7 22 14 30 15 23 4 28 14 7 14 -34
1 -55 26 -58 69 -2 23 -6 44 -9 47 -4 4 -5 -14 -2 -40 4 -56 -10 -75 -55 -68
-51 7 -58 44 -20 104 16 27 30 54 30 59 0 5 5 9 10 9 6 0 13 0 18 0 4 0 8 -4
8 -10 1 -5 3 -13 4 -17 1 -5 2 -12 1 -16 -1 -5 3 -6 9 -2 8 5 8 11 0 20 -7 9
-6 16 6 26 13 11 17 10 25 -2 8 -10 9 -8 7 11 -3 24 -1 25 52 22 87 -5 55 9
-41 17 -19 2 -14 42 7 62 13 12 22 25 19 27 -3 3 -13 -4 -22 -15 -12 -13 -30
-20 -56 -20 -34 0 -40 5 -73 54 -32 48 -34 55 -20 69 9 8 16 20 16 25 0 5 14
9 31 9 21 0 28 -4 23 -12 -6 -10 -4 -10 7 -2 8 6 24 10 37 9 13 -1 25 2 28 7
3 4 -10 8 -29 8 -49 0 -98 11 -92 21 3 4 1 10 -5 14 -6 4 -8 11 -5 16 4 5 1 9
-6 9 -7 0 9 22 37 50 40 41 55 49 82 48 25 -1 38 -8 50 -27 9 -14 19 -28 22
-31 9 -7 50 -76 50 -83 0 -3 -7 -12 -15 -21 -13 -13 -14 -19 -3 -37 10 -17 10
-23 1 -26 -7 -3 -13 -9 -13 -15 0 -6 6 -6 15 2 24 20 43 4 48 -37 l4 -38 1 43
c1 26 7 42 15 42 6 0 42 -41 79 -91 63 -83 66 -91 52 -108 -15 -17 -18 -17
-62 -2 -26 9 -49 19 -50 24 -2 4 -10 13 -17 21 -7 7 -15 26 -18 42 l-4 29 -2
-31 c0 -18 -8 -34 -16 -38 -20 -7 -19 -30 1 -47 11 -9 20 -10 32 -2 12 7 31 5
67 -6 47 -15 50 -18 53 -52 3 -30 -1 -37 -25 -49 -15 -8 -39 -22 -52 -32 -40
-30 -48 -23 -50 44 -2 81 -11 89 -11 10 0 -63 -5 -72 -29 -50 -11 11 -11 9 -2
-9 6 -13 9 -24 6 -24 -3 -1 -9 -2 -14 -3 -5 0 -13 -5 -18 -10 -4 -5 -3 -6 3
-3 6 4 20 0 30 -8 10 -8 26 -15 34 -15 8 0 31 -16 50 -36 27 -28 34 -42 32
-69 -4 -57 61 -81 91 -34 7 11 17 19 24 19 7 0 13 5 13 11 0 5 -4 8 -9 5 -4
-3 -18 5 -30 18 -18 19 -20 27 -12 52 6 16 15 48 21 70 9 38 14 42 45 46 28 3
39 -1 53 -20 9 -13 24 -32 33 -42 8 -10 24 -34 34 -53 21 -40 12 -62 -28 -70
-19 -4 -18 -4 4 -6 47 -2 43 -28 -18 -102 -31 -38 -61 -69 -67 -69 -5 0 -19 8
-30 17 -14 13 -17 13 -9 2 7 -8 10 -24 7 -35 -3 -12 3 -27 15 -38 14 -13 21
-15 21 -6 0 15 32 8 104 -25 42 -19 55 -31 59 -52 4 -19 1 -32 -11 -40 -8 -7
-11 -13 -5 -13 7 0 15 4 18 10 11 18 25 11 26 -12 1 -16 3 -18 6 -7 6 24 38
29 65 11 43 -30 57 -46 51 -55 -3 -5 -7 -23 -8 -39 -2 -16 -4 -30 -6 -32 -98
-70 -139 -94 -144 -86 -3 5 -3 15 1 21 3 6 9 28 11 48 3 20 9 41 15 48 6 7 5
14 -3 19 -8 4 -9 3 -5 -4 4 -7 3 -12 -2 -12 -5 0 -12 -21 -16 -48 -10 -72 -20
-82 -49 -50 -35 37 -31 109 8 150 15 15 22 28 17 28 -6 0 -20 -12 -32 -27 -18
-24 -24 -26 -48 -17 -24 9 -30 7 -45 -12 -9 -13 -17 -31 -17 -42 0 -26 34 -55
57 -48 13 4 24 -4 41 -27 31 -46 28 -70 -13 -106 -38 -33 -55 -39 -55 -19 0 6
-9 2 -20 -10 -26 -27 -25 -40 2 -63 23 -21 33 -24 23 -10 -3 5 -1 12 5 16 5 3
10 14 10 23 0 16 7 24 55 62 17 14 18 13 13 -7 -8 -30 7 -30 17 -1 6 19 10 12
19 -34 15 -77 25 -83 13 -8 -5 33 -8 63 -5 66 6 6 58 -16 59 -25 0 -3 3 -17 6
-31 3 -14 6 -35 7 -47 1 -14 5 -18 11 -12 5 5 19 9 30 9 42 0 60 37 41 82 -5
10 1 43 13 80 12 34 17 58 12 53 -5 -6 -16 -34 -26 -62 -13 -43 -21 -53 -39
-53 -12 0 -26 -4 -32 -10 -6 -6 -20 -1 -38 13 -40 32 -30 53 53 110 60 41 71
45 79 31 8 -15 12 -15 39 0 38 19 47 51 26 87 -13 22 -20 26 -35 18 -11 -6
-24 -6 -35 0 -26 13 -67 60 -61 67 4 3 2 19 -2 35 -8 26 -3 35 57 99 36 38 69
67 74 64 5 -3 7 -31 5 -62 -3 -39 -2 -49 4 -32 4 14 8 35 9 48 1 12 15 35 33
50 26 24 30 33 24 56 -4 16 -16 30 -26 33 -11 3 -20 10 -21 17 -10 164 -8 220
7 237 9 10 21 16 27 12 6 -3 7 -1 3 5 -4 7 -9 22 -11 34 -3 12 -9 26 -14 31
-5 5 9 54 38 125 41 98 52 116 72 119 46 7 57 54 22 94 -12 15 -12 29 3 105 9
49 18 100 21 113 5 32 11 41 28 41 23 0 34 52 17 78 -8 12 -21 22 -28 22 -8 0
-14 10 -14 25 0 14 -4 25 -9 25 -6 0 -8 -10 -6 -22 3 -12 -2 -29 -11 -37 -8
-9 -20 -24 -27 -33 -7 -10 -23 -19 -37 -21 -14 -2 -24 -7 -22 -10 1 -4 2 -10
2 -14 0 -4 5 -2 12 5 7 7 18 12 26 12 24 0 59 -34 56 -55 -2 -11 -6 -33 -9
-50 -24 -147 -30 -175 -39 -175 -6 0 -26 32 -44 71 -29 60 -32 72 -20 87 11
15 11 15 -2 6 -12 -10 -18 -6 -31 22 -9 19 -13 34 -9 34 4 0 11 11 14 24 7 29
-12 78 -28 73 -6 -3 -20 3 -30 12 -18 15 -19 15 -13 -1 12 -34 -25 -27 -86 18
-34 25 -64 49 -67 53 -3 4 -12 10 -22 14 -9 3 -22 18 -30 34 -7 15 -22 29 -34
31 -22 3 -74 75 -74 103 0 15 10 16 71 13 40 -2 69 0 65 3 -6 6 -39 10 -98 12
-45 2 -51 30 -17 81 52 77 59 81 111 71 3 0 17 -18 29 -38 13 -21 31 -47 41
-57 22 -24 23 -40 3 -56 -11 -9 -12 -17 -5 -30 10 -19 -9 -50 -31 -50 -5 0 -9
-4 -9 -10 0 -5 14 -1 32 10 17 10 35 17 40 14 24 -15 49 -11 60 9 6 12 18 28
27 35 9 8 11 11 4 8 -6 -4 -14 3 -18 14 -3 11 -10 20 -15 20 -4 0 -6 10 -3 23
4 19 3 20 -7 5 -17 -27 -47 -21 -67 12 -9 17 -21 30 -25 30 -4 0 -8 5 -8 10 0
6 -9 20 -20 32 -14 15 -17 25 -10 39 15 26 12 55 -6 70 -22 18 -57 21 -70 6z
m-518 -144 c45 -12 80 -44 87 -81 8 -41 -3 -41 -56 1 -95 75 -118 101 -79 92
9 -3 31 -8 48 -12z m-20 -53 c16 -14 44 -36 62 -49 18 -13 32 -31 32 -40 0 -9
-21 -29 -47 -45 l-47 -28 -43 21 c-41 20 -43 22 -44 68 -1 27 -2 61 -3 76 -2
17 3 31 13 37 16 9 20 7 77 -40z m358 16 c17 -21 18 -29 8 -52 -8 -16 -18 -24
-27 -20 -8 3 -17 0 -21 -6 -5 -7 2 -9 20 -6 48 9 40 -18 -23 -85 -53 -56 -65
-63 -91 -59 -22 3 -34 13 -46 38 -9 19 -20 37 -25 40 -5 3 -5 13 1 23 7 14 27
20 75 26 35 3 67 11 71 16 3 6 -6 7 -23 4 -37 -8 -123 -16 -123 -11 0 2 26 30
58 63 50 52 61 59 92 57 24 -1 41 -9 54 -28z m125 -163 c32 -44 33 -47 16 -60
-11 -7 -28 -13 -39 -14 -22 -1 -24 -1 -121 -13 -33 -5 -62 -8 -65 -7 -14 3 0
26 50 81 47 52 59 60 90 60 30 -1 40 -7 69 -47z m-319 -24 c12 -22 19 -46 16
-54 -6 -18 -50 -18 -121 -1 -42 9 -50 15 -50 34 0 12 2 21 5 20 3 -2 23 11 44
29 47 38 72 32 106 -28z m355 -93 c-8 -27 -13 -49 -14 -58 -1 -5 -9 -8 -18 -8
-10 0 -31 -8 -48 -18 -29 -18 -30 -18 -65 5 -19 12 -40 27 -47 33 -7 5 -17 10
-23 10 -6 0 -8 4 -5 10 3 6 -1 7 -9 4 -10 -4 -16 -1 -16 9 0 19 35 28 51 13 9
-8 10 -8 5 2 -4 7 -2 12 6 12 21 1 90 11 128 19 42 9 64 -4 55 -33z m-675 8
c0 -8 5 -14 11 -14 6 0 -5 -21 -24 -47 -28 -38 -40 -47 -68 -48 -32 -2 -63 23
-92 72 -12 21 10 42 40 38 15 -1 45 3 67 9 46 14 66 11 66 -10z m200 6 c0 -5
7 -7 16 -3 9 3 20 0 25 -8 5 -8 9 -9 9 -4 0 7 15 9 35 7 65 -8 53 -61 -33
-151 -7 -8 -20 -24 -28 -37 -10 -15 -23 -21 -36 -19 -26 5 -20 -4 -50 86 l-25
76 23 26 c12 14 25 23 28 20 3 -4 6 -1 6 5 0 7 7 12 15 12 8 0 15 -4 15 -10z
m588 -37 c108 -76 123 -90 109 -101 -7 -5 -46 -10 -88 -11 -71 -2 -76 0 -89
23 -7 14 -21 28 -31 31 -11 4 -16 13 -13 25 2 11 6 29 8 40 12 52 21 52 104
-7z m-946 -47 c23 -25 34 -45 31 -57 -6 -22 -1 -21 -83 -25 -36 -1 -82 -5
-103 -7 -29 -3 -40 0 -47 13 -8 15 2 27 58 69 40 30 76 49 88 48 12 -1 37 -20
56 -41z m240 32 c12 0 24 -20 44 -80 23 -72 25 -82 11 -95 -9 -10 -20 -12 -29
-7 -7 5 -15 9 -18 10 -36 11 -50 18 -50 24 0 4 -15 11 -34 14 -49 9 -53 45
-13 102 25 35 35 43 51 37 12 -3 29 -6 38 -5z m363 -9 c4 -5 31 -22 61 -36 53
-25 54 -26 54 -68 0 -41 -3 -45 -50 -74 -28 -17 -57 -31 -64 -31 -10 0 -20 24
-30 73 -25 114 -26 131 -13 139 17 11 35 10 42 -3z m-50 -101 c26 -118 21
-132 -45 -117 -23 5 -58 11 -77 13 -58 4 -67 35 -25 83 47 55 62 73 62 78 0 3
8 14 18 24 33 37 45 21 67 -81z m520 -18 c15 -16 14 -22 -1 -79 -23 -82 -39
-90 -91 -43 -23 20 -53 45 -67 56 -14 10 -23 23 -19 29 3 6 1 7 -5 3 -16 -10
-15 6 2 29 7 10 19 16 27 13 8 -3 23 -2 34 2 38 15 103 9 120 -10z m-1045 -7
c0 -6 4 -13 10 -15 8 -2 -55 -104 -90 -145 -18 -22 -33 -15 -97 45 -52 49 -60
61 -56 85 5 24 10 27 52 28 63 2 112 7 116 11 9 9 65 1 65 -9z m191 -43 c41
-14 56 -25 64 -45 8 -24 5 -31 -38 -72 -48 -45 -48 -46 -88 -34 -21 6 -39 17
-40 24 0 7 -2 21 -4 32 -19 121 -19 114 6 124 15 5 29 5 35 -1 7 -5 36 -17 65
-28z m960 -76 c30 -64 47 -110 41 -116 -11 -11 -128 43 -146 68 -11 14 -10 28
6 77 21 68 25 77 39 77 5 0 32 -48 60 -106z m-1086 38 c5 -26 9 -58 11 -71 2
-13 5 -26 8 -29 6 -6 -52 -45 -69 -47 -17 -2 -59 18 -72 33 -10 12 -9 21 3 45
31 59 85 126 99 121 7 -3 16 -26 20 -52z m658 36 c12 -7 23 -14 25 -14 2 -1
-2 -21 -8 -44 -6 -23 -12 -55 -12 -70 -1 -45 -42 -47 -85 -4 -18 19 -38 34
-43 34 -6 0 -10 11 -10 25 0 19 10 29 39 45 22 11 42 24 46 30 8 13 21 13 48
-2z m139 -17 c13 -11 47 -38 76 -61 30 -23 50 -45 45 -49 -4 -4 -54 -20 -111
-35 -139 -38 -141 -37 -117 102 4 30 8 34 48 48 18 6 33 12 34 13 2 0 13 -8
25 -18z m-387 -46 c22 -1 43 -3 48 -4 14 -2 6 -37 -20 -88 -40 -76 -65 -73
-120 14 -49 77 -45 97 16 87 20 -3 54 -7 76 -9z m193 -129 c-2 -16 -16 -23
-63 -33 -81 -16 -105 -16 -112 3 -7 20 46 122 66 127 25 5 112 -73 109 -97z
m332 32 c0 -7 -5 -30 -11 -50 -8 -29 -15 -38 -32 -38 -12 0 -35 -9 -51 -19
l-29 -20 -51 29 c-28 16 -52 34 -54 39 -4 11 61 36 143 55 77 18 85 19 85 4z
m70 -9 c0 -5 3 -8 8 -8 20 3 32 -2 26 -13 -5 -7 -3 -8 5 -4 18 11 71 -14 71
-33 0 -11 -22 -25 -67 -43 l-68 -27 -27 27 c-26 26 -27 29 -14 66 7 21 19 42
26 46 15 9 40 2 40 -11z m-380 -86 c11 -14 18 -29 15 -33 -2 -4 -7 -34 -9 -66
-4 -46 -3 -53 4 -29 5 16 11 49 12 73 2 35 7 44 26 49 12 3 22 10 22 15 0 6 6
6 14 -2 8 -6 34 -21 58 -33 33 -17 43 -28 44 -48 1 -14 4 -31 7 -36 7 -11 -21
-38 -88 -88 -22 -17 -43 -34 -46 -38 -4 -5 -19 -1 -33 9 -21 13 -26 23 -21 41
3 12 2 23 -3 23 -4 0 -8 -10 -9 -21 -2 -26 -2 -26 -33 -34 -23 -5 -32 2 -88
77 -65 88 -72 107 -46 132 18 19 38 21 28 4 -4 -7 2 -4 14 6 12 11 22 17 22
13 0 -3 12 -2 27 2 48 13 62 10 83 -16z m506 -17 c3 -7 -15 -62 -38 -122 -35
-87 -48 -110 -65 -112 -25 -4 -46 27 -37 55 4 13 3 14 -3 5 -7 -9 -13 -6 -23
15 -7 15 -15 23 -17 16 -2 -7 7 -31 21 -55 22 -39 24 -47 13 -80 -12 -40 -47
-63 -78 -53 -15 5 -18 12 -13 31 4 14 8 51 9 82 2 31 3 60 4 63 1 4 14 12 30
19 30 12 57 58 49 82 -3 8 19 23 61 40 78 32 80 32 87 14z m-248 -234 c-4 -98
-12 -113 -52 -106 -21 4 -21 4 1 -7 35 -19 37 -44 6 -98 -40 -73 -58 -71 -118
14 -27 39 -50 75 -51 82 -5 33 50 36 119 8 9 -4 17 -3 17 3 0 5 -24 16 -52 24
-38 11 -53 20 -52 32 1 9 -2 16 -7 16 -22 0 -6 41 24 61 17 13 34 26 37 29 3
3 20 17 37 32 29 24 36 25 64 15 l31 -12 -4 -93z m-734 26 c11 -11 8 -22 -20
-66 -19 -29 -34 -57 -34 -62 0 -6 -3 -10 -7 -11 -5 0 -22 -2 -39 -4 -24 -4
-36 2 -62 29 -21 22 -28 36 -21 43 9 9 16 31 18 57 1 5 3 7 6 4 3 -2 33 1 67
8 83 16 77 16 92 2z m881 -179 c7 -144 8 -190 4 -194 -9 -8 -100 155 -93 167
4 7 3 8 -4 4 -14 -9 -33 26 -23 43 5 7 21 21 37 30 24 15 33 16 53 6 19 -10
25 -21 26 -56z m-472 37 c17 -13 17 -16 0 -81 -14 -51 -24 -70 -41 -78 -21
-10 -28 -6 -58 26 -53 56 -51 68 14 110 65 42 61 41 85 23z m358 -73 c82 -135
99 -167 90 -176 -14 -14 -154 38 -162 61 -4 11 -12 23 -17 26 -11 7 7 56 21
56 4 0 7 6 7 13 0 12 27 57 35 57 1 0 13 -17 26 -37z m-733 -8 c10 -10 -130
-144 -144 -138 -8 3 -11 9 -8 14 3 5 -9 1 -26 -9 -38 -21 -49 -56 -26 -81 9
-10 15 -29 13 -42 -10 -61 -31 -119 -42 -119 -7 0 -36 31 -64 70 -29 38 -59
77 -67 85 -9 8 -13 23 -9 34 4 15 13 18 40 15 20 -1 40 -6 45 -9 6 -3 10 -2
10 3 0 13 -25 22 -61 22 -38 0 -37 13 4 41 17 13 34 27 35 31 2 4 8 8 13 8 6
0 34 15 63 34 38 24 57 31 69 25 9 -5 14 -16 11 -24 -4 -8 -1 -15 5 -15 6 0
10 5 9 12 -2 6 9 18 25 25 15 8 27 18 27 22 0 9 69 6 78 -4z m747 -171 c71
-20 62 -14 70 -45 5 -22 -4 -36 -61 -97 l-67 -71 -19 21 c-10 11 -18 28 -19
37 0 9 -2 25 -5 36 -2 11 -5 33 -6 48 -1 16 -6 31 -11 34 -12 7 4 -115 18
-137 3 -5 -3 -18 -14 -29 -20 -20 -20 -20 -73 3 -29 13 -60 26 -69 29 -31 10
-28 42 10 86 20 23 45 53 56 66 15 19 26 24 47 19 17 -3 31 0 40 10 7 8 20 13
28 11 8 -2 42 -11 75 -21z m-1198 -20 c22 -24 24 -33 19 -88 -2 -33 -5 -78 -5
-98 -1 -31 -5 -38 -21 -38 -11 0 -20 3 -20 8 0 4 -31 49 -70 101 -89 121 -86
129 39 139 25 2 39 -4 58 -24z m135 -109 c38 -49 68 -92 68 -96 0 -12 -12 -17
-75 -34 -52 -13 -59 -13 -80 3 -19 14 -22 25 -20 62 2 25 3 71 4 103 1 81 19
74 103 -38z m-256 8 c93 -128 95 -131 88 -157 -7 -29 -53 -43 -70 -20 -6 8
-16 14 -22 14 -6 0 -16 9 -22 20 -6 11 -9 20 -6 20 2 0 0 17 -5 38 -5 20 -12
60 -15 87 -4 28 -8 53 -11 58 -2 4 0 7 5 7 4 0 31 -30 58 -67z m324 -143 c15
-9 15 -33 1 -141 -1 -4 -10 -9 -20 -12 -14 -3 -36 11 -75 47 -65 59 -64 71 11
98 57 20 64 20 83 8z"/>
<path d="M1150 1899 c0 -5 5 -7 10 -4 6 3 10 8 10 11 0 2 -4 4 -10 4 -5 0 -10
-5 -10 -11z"/>
<path d="M949 1783 c-13 -16 -12 -17 4 -4 9 7 17 15 17 17 0 8 -8 3 -21 -13z"/>
<path d="M977 1775 c-4 -8 -3 -16 1 -19 4 -3 9 4 9 15 2 23 -3 25 -10 4z"/>
<path d="M1880 1351 c0 -6 4 -13 10 -16 6 -3 7 1 4 9 -7 18 -14 21 -14 7z"/>
<path d="M890 921 c0 -6 4 -12 8 -15 5 -3 9 1 9 9 0 8 -4 15 -9 15 -4 0 -8 -4
-8 -9z"/>
<path d="M784 833 c10 -11 37 -12 30 -2 -3 5 -12 9 -21 9 -9 0 -13 -3 -9 -7z"/>
<path d="M1866 2341 c-4 -5 -17 -8 -31 -6 -14 1 -25 -2 -25 -6 0 -5 6 -9 14
-9 27 0 55 -53 35 -66 -5 -3 -9 -10 -9 -17 0 -6 6 -2 14 8 8 11 12 23 10 26
-10 17 31 19 43 3 7 -10 13 -13 13 -7 0 7 -4 15 -10 18 -5 3 -10 17 -10 30 0
12 -7 26 -16 29 -20 8 -22 8 -28 -3z"/>
<path d="M517 2329 c7 -7 15 -10 18 -7 3 3 -2 9 -12 12 -14 6 -15 5 -6 -5z"/>
<path d="M755 2330 c17 -6 41 -12 55 -15 14 -3 40 -9 59 -15 19 -5 36 -8 39
-6 5 6 -94 33 -143 40 -37 5 -38 5 -10 -4z"/>
<path d="M1570 2330 c-9 -6 -10 -10 -3 -10 6 0 15 5 18 10 8 12 4 12 -15 0z"/>
<path d="M1756 2331 c8 -8 43 -8 38 0 -2 4 -13 7 -24 6 -10 -1 -17 -3 -14 -6z"/>
<path d="M406 2322 c-3 -5 -3 -17 -2 -28 2 -10 -2 -23 -8 -27 -6 -5 -1 -5 12
-2 15 4 28 1 40 -12 9 -10 14 -14 10 -9 -15 18 -8 45 15 62 14 11 16 14 5 11
-10 -4 -20 -2 -23 3 -7 12 -42 13 -49 2z"/>
<path d="M1490 2308 c0 -11 12 -10 30 2 12 7 10 9 -8 7 -12 0 -22 -5 -22 -9z"/>
<path d="M607 2270 c-3 -11 -1 -20 4 -20 5 0 9 9 9 20 0 11 -2 20 -4 20 -2 0
-6 -9 -9 -20z"/>
<path d="M1966 2225 c14 -19 30 -35 35 -35 12 0 11 -47 -1 -55 -6 -4 -4 -12 5
-21 8 -9 15 -22 15 -29 0 -8 6 -12 14 -9 17 6 25 -6 28 -40 1 -14 6 -26 11
-26 5 0 6 16 3 34 -6 29 -3 37 14 46 37 20 17 88 -28 91 -31 2 -37 4 -60 17
-13 8 -21 16 -18 19 5 5 -31 43 -41 43 -2 0 8 -16 23 -35z"/>
<path d="M376 2233 c-6 -14 -5 -15 5 -6 7 7 10 15 7 18 -3 3 -9 -2 -12 -12z"/>
<path d="M581 2189 c-6 -18 -9 -34 -7 -36 2 -2 9 10 15 28 6 18 9 34 7 36 -2
2 -9 -10 -15 -28z"/>
<path d="M477 2180 c3 -11 9 -22 13 -25 5 -3 6 4 3 15 -3 11 -9 22 -13 25 -5
3 -6 -4 -3 -15z"/>
<path d="M278 2169 c-22 -13 -23 -52 -2 -84 14 -22 18 -23 31 -10 8 9 18 13
23 10 4 -3 13 2 20 10 7 8 16 13 20 10 13 -8 -22 59 -34 67 -15 11 -38 9 -58
-3z"/>
<path d="M1708 2123 c7 -3 16 -2 19 1 4 3 -2 6 -13 5 -11 0 -14 -3 -6 -6z"/>
<path d="M1898 2123 c6 -2 18 -2 25 0 6 3 1 5 -13 5 -14 0 -19 -2 -12 -5z"/>
<path d="M1948 2123 c6 -2 18 -2 25 0 6 3 1 5 -13 5 -14 0 -19 -2 -12 -5z"/>
<path d="M390 2096 c0 -2 7 -7 16 -10 8 -3 12 -2 9 4 -6 10 -25 14 -25 6z"/>
<path d="M2145 2080 c-4 -6 -12 -7 -18 -4 -7 4 -9 4 -5 -1 4 -4 3 -14 -4 -22
-9 -11 -8 -13 3 -11 8 2 13 -4 11 -13 -2 -14 23 -19 60 -11 7 2 1 49 -8 64 -7
11 -32 10 -39 -2z"/>
<path d="M2006 2045 c-3 -8 -1 -15 4 -15 6 0 10 7 10 15 0 8 -2 15 -4 15 -2 0
-6 -7 -10 -15z"/>
<path d="M1820 2040 c0 -5 5 -10 11 -10 5 0 7 5 4 10 -3 6 -8 10 -11 10 -2 0
-4 -4 -4 -10z"/>
<path d="M1670 2020 c-14 -11 -20 -20 -15 -19 13 0 50 28 44 33 -2 3 -15 -4
-29 -14z"/>
<path d="M1836 1964 c19 -77 23 -88 30 -82 2 3 0 16 -5 30 -5 14 -12 40 -14
58 -3 18 -10 37 -16 43 -5 5 -3 -17 5 -49z"/>
<path d="M1980 1994 c-13 -32 -12 -37 0 -29 6 3 10 15 10 25 0 10 6 21 13 23
9 4 9 6 -1 6 -7 1 -17 -11 -22 -25z"/>
<path d="M454 1978 l-19 -23 23 19 c21 18 27 26 19 26 -2 0 -12 -10 -23 -22z"/>
<path d="M2070 1977 c0 -14 4 -28 9 -32 6 -3 8 6 5 22 -7 37 -14 42 -14 10z"/>
<path d="M1950 1929 c-7 -11 -10 -23 -7 -25 2 -2 9 7 15 21 14 30 7 33 -8 4z"/>
<path d="M1920 1879 c0 -5 5 -7 10 -4 6 3 10 8 10 11 0 2 -4 4 -10 4 -5 0 -10
-5 -10 -11z"/>
<path d="M2160 1756 c-15 -15 -12 -33 6 -40 10 -4 13 -2 8 6 -5 7 -2 9 7 6 11
-4 15 1 15 16 0 24 -18 30 -36 12z m24 -4 c3 -5 -1 -9 -9 -9 -8 0 -12 4 -9 9
3 4 7 8 9 8 2 0 6 -4 9 -8z"/>
<path d="M266 1687 c3 -10 9 -15 12 -12 3 3 0 11 -7 18 -10 9 -11 8 -5 -6z"/>
<path d="M280 1611 c0 -6 4 -13 10 -16 6 -3 7 1 4 9 -7 18 -14 21 -14 7z"/>
<path d="M1130 1460 c0 -11 39 -20 45 -10 3 4 -6 10 -20 12 -14 3 -25 2 -25
-2z"/>
<path d="M2104 1434 c2 -12 0 -28 -5 -35 -5 -9 -9 -10 -9 -3 0 7 -7 14 -15 18
-12 4 -13 2 -6 -13 6 -10 8 -20 6 -23 -2 -2 5 -4 15 -4 11 0 20 6 20 13 0 7 4
13 9 13 6 0 9 9 8 19 0 11 -4 18 -8 15 -4 -2 -10 2 -13 8 -4 7 -4 3 -2 -8z"/>
<path d="M352 1369 c6 -16 12 -28 14 -26 5 5 -13 57 -20 57 -3 0 0 -14 6 -31z"/>
<path d="M1162 1364 c-7 -8 -8 -14 -3 -14 10 0 25 19 20 25 -2 1 -10 -3 -17
-11z"/>
<path d="M533 1318 c1 -16 5 -28 9 -28 10 0 9 9 -2 35 -8 17 -8 16 -7 -7z"/>
<path d="M373 1315 c0 -8 4 -12 9 -9 5 3 6 10 3 15 -9 13 -12 11 -12 -6z"/>
<path d="M486 1313 c-6 -14 -5 -15 5 -6 7 7 10 15 7 18 -3 3 -9 -2 -12 -12z"/>
<path d="M390 1270 c6 -11 13 -20 16 -20 2 0 0 9 -6 20 -6 11 -13 20 -16 20
-2 0 0 -9 6 -20z"/>
<path d="M540 1268 c0 -9 5 -20 10 -23 13 -8 13 5 0 25 -8 13 -10 13 -10 -2z"/>
<path d="M461 1243 c6 -37 -27 -53 -41 -20 -9 20 -10 20 -8 2 0 -11 -4 -31 -9
-45 -12 -28 -7 -47 16 -71 14 -15 19 -15 44 -2 26 13 31 13 48 -3 11 -9 22
-15 25 -11 3 3 -6 13 -20 22 -13 9 -22 23 -20 30 3 7 -2 25 -11 39 -10 15 -14
33 -10 46 4 11 2 20 -4 20 -6 0 -10 -3 -10 -7z"/>
<path d="M1122 1166 c8 -8 25 -27 39 -43 13 -16 31 -33 39 -38 8 -5 -6 14 -30
43 -25 29 -49 52 -53 52 -5 0 -2 -6 5 -14z"/>
<path d="M1979 1118 c-5 -18 -6 -38 -1 -34 7 8 12 36 6 36 -2 0 -4 -1 -5 -2z"/>
<path d="M701 1064 c-6 -15 -9 -29 -7 -32 3 -2 10 8 16 23 14 36 7 43 -9 9z"/>
<path d="M429 1078 c-12 -40 -17 -88 -8 -88 5 0 9 12 10 28 0 15 2 35 4 45 2
13 -2 26 -6 15z"/>
<path d="M591 998 c-1 -16 4 -28 9 -28 12 0 12 8 0 35 -8 18 -9 17 -9 -7z"/>
<path d="M672 983 c-15 -48 -8 -55 8 -8 7 20 10 38 8 41 -3 2 -10 -13 -16 -33z"/>
<path d="M410 968 c0 -7 -3 -23 -6 -35 -4 -15 -2 -23 7 -23 7 0 10 3 7 6 -4 3
-2 19 2 35 5 17 5 29 -1 29 -5 0 -9 -6 -9 -12z"/>
<path d="M1480 880 c0 -5 5 -10 11 -10 5 0 7 5 4 10 -3 6 -8 10 -11 10 -2 0
-4 -4 -4 -10z"/>
<path d="M1530 879 c0 -5 5 -7 10 -4 6 3 10 8 10 11 0 2 -4 4 -10 4 -5 0 -10
-5 -10 -11z"/>
<path d="M1420 800 c6 -11 13 -20 16 -20 2 0 0 9 -6 20 -6 11 -13 20 -16 20
-2 0 0 -9 6 -20z"/>
<path d="M1445 760 c-3 -5 -1 -10 4 -10 6 0 11 5 11 10 0 6 -2 10 -4 10 -3 0
-8 -4 -11 -10z"/>
<path d="M1880 614 c0 -8 5 -12 10 -9 6 3 10 10 10 16 0 5 -4 9 -10 9 -5 0
-10 -7 -10 -16z"/>
<path d="M1501 584 c0 -11 3 -14 6 -6 3 7 2 16 -1 19 -3 4 -6 -2 -5 -13z"/>
<path d="M1876 575 c-3 -9 -6 -22 -5 -28 0 -7 5 -1 10 12 5 13 8 26 5 28 -2 2
-6 -3 -10 -12z"/>
<path d="M1515 500 c3 -5 8 -10 11 -10 2 0 4 5 4 10 0 6 -5 10 -11 10 -5 0 -7
-4 -4 -10z"/>
<path d="M1681 474 c0 -11 3 -14 6 -6 3 7 2 16 -1 19 -3 4 -6 -2 -5 -13z"/>
<path d="M635 450 c13 -42 24 -70 29 -70 6 0 -18 78 -28 87 -5 4 -5 -3 -1 -17z"/>
<path d="M569 410 c-9 -28 -12 -50 -8 -50 7 0 32 90 26 96 -2 2 -10 -19 -18
-46z"/>
<path d="M475 410 c3 -5 8 -10 11 -10 2 0 4 5 4 10 0 6 -5 10 -11 10 -5 0 -7
-4 -4 -10z"/>
<path d="M490 365 c0 -5 5 -17 10 -25 5 -8 10 -10 10 -5 0 6 -5 17 -10 25 -5
8 -10 11 -10 5z"/>
<path d="M666 357 c3 -10 9 -15 12 -12 3 3 0 11 -7 18 -10 9 -11 8 -5 -6z"/>
<path d="M544 325 c-4 -15 -13 -25 -25 -25 -46 0 -47 -85 0 -96 14 -4 39 -18
55 -33 l30 -26 -22 28 c-17 24 -19 32 -9 48 6 10 16 19 21 19 4 0 -3 15 -16
33 -19 24 -23 38 -17 55 5 13 5 22 -1 22 -5 0 -12 -11 -16 -25z"/>
<path d="M670 321 c0 -5 5 -13 10 -16 6 -3 10 -2 10 4 0 5 -4 13 -10 16 -5 3
-10 2 -10 -4z"/>
<path d="M1521 304 c0 -11 3 -14 6 -6 3 7 2 16 -1 19 -3 4 -6 -2 -5 -13z"/>
<path d="M731 288 c-17 -17 -25 -20 -28 -10 -3 9 -10 4 -19 -14 -10 -20 -11
-30 -3 -40 6 -7 8 -17 5 -22 -3 -6 5 -9 19 -8 14 0 26 8 27 16 0 8 2 24 2 35
1 11 7 30 14 43 7 12 11 22 10 22 -2 0 -14 -10 -27 -22z"/>
<path d="M810 246 c0 -8 4 -17 9 -20 5 -4 7 3 4 14 -6 23 -13 26 -13 6z"/>
<path d="M1510 239 c0 -5 5 -7 10 -4 6 3 10 8 10 11 0 2 -4 4 -10 4 -5 0 -10
-5 -10 -11z"/>
<path d="M810 194 c0 -9 -5 -12 -12 -8 -8 5 -9 2 -5 -10 4 -10 10 -28 13 -41
l6 -24 21 20 c27 24 28 38 5 62 -22 21 -28 21 -28 1z"/>
<path d="M1592 169 c-20 -52 -21 -71 -2 -30 11 24 18 46 15 49 -2 3 -8 -6 -13
-19z"/>
<path d="M664 139 c-13 -30 -21 -39 -34 -36 -14 4 -17 -1 -15 -20 4 -35 19
-47 51 -39 19 5 24 10 15 15 -15 10 -17 57 -2 94 6 15 8 27 6 27 -3 0 -13 -18
-21 -41z"/>
<path d="M733 161 c0 -11 5 -18 9 -15 4 3 5 11 1 19 -7 21 -12 19 -10 -4z"/>
<path d="M1650 95 c0 -8 -10 -23 -21 -34 l-22 -20 27 -7 c29 -7 51 6 59 36 3
13 0 20 -9 20 -8 0 -14 5 -14 10 0 6 -4 10 -10 10 -5 0 -10 -7 -10 -15z"/>
<path d="M791 83 c-9 -16 -12 -16 -21 -3 -8 13 -10 13 -10 -2 0 -9 -7 -21 -15
-25 -13 -8 -13 -11 3 -23 34 -30 57 -15 57 36 0 39 0 40 -14 17z"/>
<path d="M1526 72 c-9 -27 3 -52 24 -52 26 0 39 21 26 45 -15 27 -43 30 -50 7z"/>
</g>
</svg>
